<svg width="48" height="48" viewBox="0 0 48 48" fill="none" xmlns="http://www.w3.org/2000/svg">
<g id="instagram">
<path id="Vector" d="M23.9986 13.0047C17.9182 13.0047 13.0111 17.9119 13.0111 23.9922C13.0111 30.0726 17.9182 34.9797 23.9986 34.9797C30.0789 34.9797 34.9861 30.0726 34.9861 23.9922C34.9861 17.9119 30.0789 13.0047 23.9986 13.0047ZM23.9986 31.1333C20.0664 31.1333 16.8575 27.9244 16.8575 23.9922C16.8575 20.0601 20.0664 16.8511 23.9986 16.8511C27.9307 16.8511 31.1397 20.0601 31.1397 23.9922C31.1397 27.9244 27.9307 31.1333 23.9986 31.1333ZM35.4361 9.994C34.0164 9.994 32.87 11.1404 32.87 12.5601C32.87 13.9797 34.0164 15.1261 35.4361 15.1261C36.8557 15.1261 38.0022 13.9851 38.0022 12.5601C38.0026 12.223 37.9365 11.8891 37.8077 11.5776C37.6789 11.2661 37.4899 10.983 37.2515 10.7446C37.0131 10.5063 36.7301 10.3173 36.4186 10.1885C36.1071 10.0597 35.7732 9.99358 35.4361 9.994ZM45.4164 23.9922C45.4164 21.0351 45.4432 18.1047 45.2772 15.1529C45.1111 11.7244 44.3289 8.6815 41.8218 6.17436C39.3093 3.66186 36.2718 2.88508 32.8432 2.719C29.8861 2.55293 26.9557 2.57972 24.0039 2.57972C21.0468 2.57972 18.1164 2.55293 15.1647 2.719C11.7361 2.88508 8.69322 3.66722 6.18608 6.17436C3.67358 8.68686 2.89679 11.7244 2.73072 15.1529C2.56465 18.1101 2.59144 21.0404 2.59144 23.9922C2.59144 26.944 2.56465 29.8797 2.73072 32.8315C2.89679 36.2601 3.67894 39.3029 6.18608 41.8101C8.69858 44.3226 11.7361 45.0994 15.1647 45.2654C18.1218 45.4315 21.0522 45.4047 24.0039 45.4047C26.9611 45.4047 29.8914 45.4315 32.8432 45.2654C36.2718 45.0994 39.3147 44.3172 41.8218 41.8101C44.3343 39.2976 45.1111 36.2601 45.2772 32.8315C45.4486 29.8797 45.4164 26.9494 45.4164 23.9922ZM40.7022 36.6244C40.3111 37.5994 39.8397 38.3279 39.0843 39.0779C38.3289 39.8333 37.6057 40.3047 36.6307 40.6958C33.8129 41.8154 27.1218 41.5636 23.9986 41.5636C20.8754 41.5636 14.1789 41.8154 11.3611 40.7011C10.3861 40.3101 9.65751 39.8386 8.90751 39.0833C8.15215 38.3279 7.68072 37.6047 7.28965 36.6297C6.17537 33.8065 6.42715 27.1154 6.42715 23.9922C6.42715 20.869 6.17537 14.1726 7.28965 11.3547C7.68072 10.3797 8.15215 9.65115 8.90751 8.90115C9.66287 8.15115 10.3861 7.67436 11.3611 7.28329C14.1789 6.169 20.8754 6.42079 23.9986 6.42079C27.1218 6.42079 33.8182 6.169 36.6361 7.28329C37.6111 7.67436 38.3397 8.14579 39.0897 8.90115C39.845 9.6565 40.3164 10.3797 40.7075 11.3547C41.8218 14.1726 41.57 20.869 41.57 23.9922C41.57 27.1154 41.8218 33.8065 40.7022 36.6244Z" fill="white"/>
</g>
</svg>
